<mxfile host="app.diagrams.net" modified="2024-07-14T20:59:48.382Z" agent="Mozilla/5.0 (iPad; CPU OS 17_5 like Mac OS X) AppleWebKit/605.1.15 (KHTML, like Gecko) EdgiOS/126.0.2592.86 Version/17.0 Mobile/15E148 Safari/604.1" version="24.6.5" etag="-avz3MwkkLO2FykG8qJ2" type="github">
  <diagram name="PÃ¡gina-1" id="9dokyrmxOdiqzvw2ISOQ">
    <mxGraphModel>
      <root>
        <mxCell id="0" />
        <mxCell id="1" parent="0" />
      </root>
    </mxGraphModel>
  </diagram>
</mxfile>
